<?xml version="1.0" encoding="UTF-8"?>
<svg version="1.1" viewBox="0 0 900 900" width="1280" height="1280" xmlns="http://www.w3.org/2000/svg">
<path transform="translate(0)" d="m0 0h900v900h-900z" fill="#fff"/>
<path transform="translate(325,430)" d="m0 0 6 2 18 12 18 13 19 10 19 7 17 4 14 2h26l20-3 21-6 18-8 16-9 15-11 18-12 5-1 16 12 10 9 8 7 23 23 11 14 10 14 12 21 9 19 9 25 12 43-6 7-13 12-8 8h-2l-1 3-8 7-9 9-14 11-13 10-17 11-18 10-27 13-33 11-23 5-17 3-23 2h-26l-31-3-25-5-24-7-25-10-26-13-24-15-12-9-14-11-12-11-10-9-14-14-8-7-7-7 4-16 8-28 7-20 8-18 11-21 11-16 11-14 9-10 6-7h2l2-4 8-7 12-11 11-9z"/>
<path transform="translate(437,161)" d="m0 0h24l15 2 21 6 16 7 18 11 17 14 9 9 11 14 9 14 10 21 5 17 2 11 1 11v14l-2 19-5 19-7 16-7 13-8 11-11 14-7 7-11 9-14 10-17 9-16 6-18 4-10 1h-21l-18-2-20-5-15-6-11-6-14-10-10-9-14-14-12-16-8-14-7-19-4-17-2-15v-30l4-20 7-19 11-19 10-13 11-12 12-11 14-10 14-8 16-7 18-5z"/>
</svg>
